# xmcd
#
# Track frame offsets: 
#        150
#        7848
#        19354
#        33143
#        37074
#        48266
#        53515
#        65040
#        80132
#        98365
#        104280
#        117311
#        128919
#
# Disc length: 1872 seconds
#
# Revision: 0
# Processed by: cddbd v1.5.1PL0 Copyright (c) Steve Scherf et al.
# Submitted via: ExactAudioCopy v0.95a4
#
DISCID=a0074e0d
DTITLE=Clinic - Internal Wrangler
DYEAR=2001
DGENRE=A Cappella
TTITLE0=Voodoo Wop
TTITLE1=The Return Of Evil Bill
TTITLE2=Internal Wrangler
TTITLE3=DJ Shangri-La
TTITLE4=The Second Line
TTITLE5=C. Q.
TTITLE6=T. K.
TTITLE7=Earth Angel
TTITLE8=Distortions
TTITLE9=Hippy Death Suite
TTITLE10=2nd Foot Stomp
TTITLE11=2/4
TTITLE12=Unknown
EXTD=
EXTT0=
EXTT1=
EXTT2=
EXTT3=
EXTT4=
EXTT5=
EXTT6=
EXTT7=
EXTT8=
EXTT9=
EXTT10=
EXTT11=
EXTT12=
PLAYORDER=
